<svg width="39" height="37" viewBox="0 0 39 37" fill="none" xmlns="http://www.w3.org/2000/svg">
<path d="M25.4035 28.3025C25.3721 27.885 25.2875 27.4767 25.1496 27.0798C24.9828 26.6301 24.7313 26.2126 24.4073 25.8455C23.9406 25.327 23.3458 24.9233 22.6736 24.6755C22.1852 24.5539 21.7572 24.2717 21.4694 23.8771C21.1696 23.416 21.2156 22.9549 21.2373 22.441C21.2373 22.4387 21.2567 21.9684 21.2808 21.3949C22.3206 20.5185 22.6373 19.1053 22.0667 17.9032C21.496 16.7011 20.1685 15.9922 18.7903 16.1482C17.412 16.3065 16.2997 17.2952 16.0458 18.5915C15.7919 19.8877 16.4545 21.1884 17.6828 21.8056C17.8061 22.5099 17.9512 23.2807 18.0382 23.5904C18.1398 23.9552 18.2897 24.3062 18.4856 24.6342C19.0514 25.5955 19.9799 26.3205 21.0825 26.6623C21.7112 26.8366 22.41 26.832 22.954 27.2106C23.515 27.596 23.7568 28.1993 23.9575 28.8073L23.9599 28.8096C24.0735 29.1629 24.4532 29.374 24.8328 29.2983C25.2149 29.2225 25.4712 28.8853 25.4301 28.5183C25.4156 28.4081 25.406 28.3209 25.4035 28.3025Z" fill="#C21975"/>
<path d="M23.791 16.1853C24.4922 14.9327 24.8525 13.5356 24.838 12.1201C24.838 8.24069 22.3015 5.0907 19.1702 5.0907C16.039 5.0907 13.5 8.23828 13.5 12.1201C13.4879 13.5356 13.8482 14.9327 14.5494 16.1853C15.5843 14.7285 17.318 13.8545 19.1702 13.8545C21.0223 13.8545 22.7537 14.7285 23.791 16.1853Z" fill="#C21975"/>
<path d="M12.0998 36.1031C12.0708 35.7337 11.9958 35.3712 11.8749 35.0202C11.7274 34.621 11.5025 34.2517 11.2148 33.9282C10.8013 33.467 10.2742 33.1092 9.67934 32.8889C9.24652 32.7834 8.86689 32.5311 8.61297 32.1801C8.34699 31.7717 8.3881 31.3634 8.40744 30.9068C8.40744 30.9068 8.42437 30.4847 8.44613 29.9777C9.03371 29.4822 9.37706 28.7733 9.38913 28.0277C9.39397 26.5732 8.18497 25.3757 6.65435 25.3183C5.34619 25.2816 4.18314 26.1052 3.84949 27.305C3.51581 28.5049 4.09854 29.7666 5.25433 30.3471C5.36556 30.9733 5.49371 31.6524 5.56867 31.9277C5.65814 32.2512 5.79355 32.5632 5.96764 32.8522C6.46817 33.7079 7.29028 34.3503 8.26961 34.6508C8.82576 34.8023 9.44474 34.8023 9.92837 35.1372C10.4289 35.4813 10.6417 36.0204 10.8182 36.5619H10.8206C10.927 36.8716 11.2607 37.0528 11.5944 36.9863C11.9281 36.9198 12.1554 36.6238 12.1191 36.3003C12.1094 36.1994 12.0998 36.1214 12.0998 36.1031Z" fill="#C21975"/>
<path d="M10.668 25.3619C11.2894 24.2539 11.6086 23.015 11.5965 21.7578C11.5965 18.3189 9.34779 15.5272 6.57191 15.5272C3.79602 15.5272 1.54728 18.3191 1.54728 21.7578C1.53519 23.015 1.85437 24.2539 2.4758 25.3619C3.39465 24.0703 4.93005 23.2972 6.57191 23.2972C8.21371 23.2972 9.74916 24.0703 10.668 25.3619Z" fill="#C21975"/>
<path d="M38.7605 35.0201C38.6106 34.6209 38.3881 34.2493 38.1004 33.9258C37.6869 33.4646 37.1574 33.1091 36.5649 32.8888C36.1297 32.781 35.7525 32.5287 35.4986 32.1777C35.2326 31.7693 35.2737 31.361 35.2931 30.9044C35.2931 30.9044 35.31 30.4823 35.3317 29.9753L35.3293 29.9776C35.9193 29.4798 36.2602 28.7731 36.2723 28.0253C36.2796 26.5708 35.0706 25.3733 33.5375 25.3159C32.2294 25.2792 31.0687 26.1028 30.7351 27.3049C30.4014 28.5048 30.9817 29.7642 32.1375 30.3469C32.2488 30.9733 32.3769 31.6523 32.4519 31.9276H32.4543C32.5437 32.2511 32.6767 32.5608 32.8508 32.8521C33.3514 33.7055 34.1759 34.3479 35.1552 34.6507C35.7114 34.8021 36.3303 34.8021 36.814 35.1371C37.3145 35.4835 37.5297 36.0226 37.7062 36.5663C37.8126 36.8738 38.1487 37.055 38.4824 36.9839C38.8137 36.9128 39.0361 36.6122 38.9926 36.291C38.9442 35.862 38.8669 35.4377 38.7605 35.0201Z" fill="#C21975"/>
<path d="M37.5541 25.3619C38.1755 24.2516 38.4946 23.0127 38.4826 21.7578C38.4826 18.3189 36.2338 15.5272 33.4579 15.5272C30.6821 15.5272 28.4333 18.3191 28.4333 21.7578H28.4309C28.4212 23.0127 28.7404 24.2516 29.3594 25.3619C30.2807 24.0703 31.8137 23.2972 33.4579 23.2972C35.0997 23.2972 36.6352 24.0703 37.5541 25.3619Z" fill="#C21975"/>
<path d="M13.7853 5.0883H1.44353C0.645565 5.0883 0 5.70315 0 6.46018C0 7.21727 0.645627 7.83205 1.44353 7.83205H11.9283C12.3732 6.82031 13.0019 5.89355 13.7853 5.0883Z" fill="#C21975"/>
<path d="M37.5541 5.0883H24.5524C25.3358 5.89355 25.9645 6.82037 26.4094 7.83211H37.5541C38.352 7.83211 38.9976 7.21727 38.9976 6.46024C38.9976 5.70321 38.352 5.0883 37.5541 5.0883Z" fill="#C21975"/>
<path d="M1.44334 2.74145H6.00854C6.393 2.74145 6.76051 2.59692 7.03133 2.33998C7.30214 2.08303 7.45448 1.73435 7.45448 1.36958C7.45448 1.0071 7.30214 0.658417 7.03133 0.401473C6.76051 0.144529 6.393 0 6.00854 0H1.44334C0.647793 0 0.00222778 0.614846 0.00222778 1.36959C0.00222778 2.12668 0.647855 2.73916 1.44334 2.74145Z" fill="#C21975"/>
<path d="M11.9593 2.74145H16.5245C16.9065 2.74145 17.274 2.59692 17.5472 2.33998C17.8181 2.08303 17.9704 1.73435 17.9704 1.36958C17.9704 1.0071 17.8181 0.658417 17.5472 0.401473C17.274 0.144529 16.9064 0 16.5245 0H11.9593C11.5748 0 11.2073 0.144529 10.9365 0.401473C10.6657 0.658417 10.5133 1.0071 10.5133 1.36958C10.5133 1.73435 10.6657 2.08303 10.9365 2.33998C11.2073 2.59692 11.5748 2.74145 11.9593 2.74145Z" fill="#C21975"/>
<path d="M22.4731 2.74145H27.0383C27.4228 2.74145 27.7903 2.59692 28.0611 2.33998C28.3319 2.08303 28.4843 1.73435 28.4843 1.36958C28.4843 1.0071 28.3319 0.658417 28.0611 0.401473C27.7903 0.144529 27.4228 0 27.0383 0H22.4731C22.0911 0 21.7236 0.144529 21.4504 0.401473C21.1795 0.658417 21.0272 1.0071 21.0272 1.36958C21.0272 1.73435 21.1795 2.08303 21.4504 2.33998C21.7236 2.59692 22.0912 2.74145 22.4731 2.74145Z" fill="#C21975"/>
<path d="M32.9889 2.74145H37.5541C37.9361 2.74145 38.3036 2.59692 38.5768 2.33998C38.8477 2.08303 39 1.73435 39 1.36958C39 1.0071 38.8477 0.658417 38.5768 0.401473C38.3036 0.144529 37.936 0 37.5541 0H32.9889C32.6044 0 32.2369 0.144529 31.9661 0.401473C31.6953 0.658417 31.5429 1.0071 31.5429 1.36958C31.5429 1.73435 31.6953 2.08303 31.9661 2.33998C32.2369 2.59692 32.6044 2.74145 32.9889 2.74145Z" fill="#C21975"/>
</svg>
