<svg width="40" height="40" viewBox="0 0 40 40" fill="none" xmlns="http://www.w3.org/2000/svg">
<path d="M27.0805 39.156C26.922 39.156 26.7652 39.0944 26.6443 38.9743C26.4091 38.7359 26.414 38.3531 26.6541 38.1195C31.1153 33.795 30.6857 24.1454 28.7957 16.557C27.6571 11.9859 27.0805 7.24286 27.0805 2.45622V1.10341C27.0805 0.769255 27.3533 0.5 27.6881 0.5C28.0246 0.5 28.2958 0.770887 28.2958 1.10341V2.45784C28.2958 7.14565 28.861 11.7928 29.9767 16.2684C30.5517 18.5782 31.4958 23.1637 31.3537 27.9391C31.2051 32.9383 29.9097 36.6544 27.5052 38.9857C27.3876 39.0976 27.234 39.156 27.0805 39.156Z" fill="#C21975" stroke="#C21975"/>
<path d="M10.7175 39.156C10.5639 39.156 10.4104 39.0992 10.2928 38.9841C7.88822 36.6531 6.59445 32.9371 6.4442 27.9375C6.30208 23.1637 7.24464 18.5764 7.82127 16.2668C8.93698 11.7916 9.50215 7.14404 9.50215 2.45624L9.50052 1.10342C9.50052 0.76927 9.77331 0.500015 10.1082 0.500015C10.4447 0.500015 10.7158 0.770902 10.7158 1.10342V2.45786C10.7158 7.24449 10.1392 11.9875 9.00062 16.5586C7.11065 24.1466 6.67938 33.795 11.1422 38.1211C11.3823 38.3547 11.3872 38.7359 11.152 38.976C11.0327 39.0944 10.8759 39.156 10.7175 39.156Z" fill="#C21975" stroke="#C21975"/>
<path d="M19.2036 33.7187C19.0256 33.7187 18.8573 33.6408 18.7413 33.5078L15.092 29.2789C14.8731 29.0258 14.9025 28.6446 15.1574 28.4273C15.4122 28.2099 15.7961 28.2391 16.015 28.4921L19.202 32.1856L22.389 28.4921C22.6079 28.2391 22.9918 28.2099 23.2466 28.4273C23.5014 28.6446 23.5308 29.0258 23.3119 29.2789L19.6626 33.5078C19.5499 33.6424 19.3817 33.7187 19.2036 33.7187Z" fill="#C21975" stroke="#C21975"/>
<path d="M19.2036 38.551C18.8671 38.551 18.596 38.2801 18.596 37.9476V33.1153C18.596 32.7811 18.8688 32.5119 19.2036 32.5119C19.5401 32.5119 19.8113 32.7828 19.8113 33.1153V37.9476C19.8113 38.2817 19.5401 38.551 19.2036 38.551Z" fill="#C21975" stroke="#C21975"/>
<path d="M4.90559 10.9623C4.7504 10.9623 4.59359 10.9039 4.47599 10.7855L1.03414 7.36777C0.68947 7.02551 0.5 6.5697 0.5 6.08634C0.5 5.60294 0.689487 5.14716 1.03414 4.80491C1.74635 4.09931 2.90291 4.09769 3.61512 4.80491L7.05533 8.22104C7.2922 8.45624 7.2922 8.83906 7.05533 9.07588L5.33523 10.7839C5.21761 10.9024 5.06075 10.9623 4.90559 10.9623ZM2.32461 5.48305C2.16943 5.48305 2.01261 5.54144 1.89501 5.65986C1.65815 5.89506 1.65815 6.27788 1.89501 6.5147L4.90559 9.5042L5.76646 8.64936L2.75588 5.65986C2.63663 5.54144 2.48141 5.48305 2.32461 5.48305Z" fill="#C21975" stroke="#C21975"/>
<path d="M17.3791 21.6389C17.2239 21.6389 17.0671 21.5805 16.9495 21.4621L5.33535 9.93052C5.09848 9.69532 5.09848 9.3125 5.33535 9.07568C5.57221 8.84048 5.95773 8.84048 6.19622 9.07568L17.8091 20.6073C18.046 20.8425 18.046 21.2253 17.8091 21.4621C17.6899 21.5805 17.5343 21.6389 17.3791 21.6389Z" fill="#C21975" stroke="#C21975"/>
<path d="M3.1856 9.25272C3.03042 9.25272 2.8736 9.19433 2.756 9.07592C2.51914 8.84071 2.51914 8.45789 2.756 8.22108L4.47611 6.51463C4.71297 6.27943 5.09849 6.27943 5.33698 6.51463C5.57384 6.74983 5.57384 7.13265 5.33698 7.36947L3.61687 9.07754C3.49599 9.19433 3.34076 9.25272 3.1856 9.25272Z" fill="#C21975" stroke="#C21975"/>
<path d="M15.2276 21.2125C15.0724 21.2125 14.9156 21.1541 14.798 21.0357C14.5611 20.8005 14.5611 20.4176 14.798 20.1808L16.5181 18.4728C16.7549 18.2376 17.1404 18.2376 17.3789 18.4728C17.6158 18.708 17.6158 19.0908 17.3789 19.3276L15.6588 21.0357C15.5396 21.1525 15.3844 21.2125 15.2276 21.2125Z" fill="#C21975" stroke="#C21975"/>
<path d="M34.8708 15.1896C34.7091 15.1896 34.5556 15.1264 34.4412 15.0128L32.7211 13.3047C32.4843 13.0695 32.4843 12.6867 32.7211 12.4499L36.1613 9.03377C36.8735 8.32655 38.0301 8.32655 38.7423 9.03377C39.4529 9.74099 39.4529 10.8895 38.7423 11.5967L35.3021 15.0128C35.1861 15.1264 35.0325 15.1896 34.8708 15.1896ZM34.01 12.8781L34.8708 13.733L37.8814 10.7435C38.1183 10.5083 38.1183 10.1255 37.8814 9.88865C37.6445 9.65344 37.259 9.65344 37.0205 9.88865L34.01 12.8781Z" fill="#C21975" stroke="#C21975"/>
<path d="M22.3973 25.8679C22.2421 25.8679 22.0853 25.8095 21.9677 25.6911C21.7308 25.4559 21.7308 25.0731 21.9677 24.8362L33.5806 13.3046C33.8175 13.0694 34.203 13.0694 34.4415 13.3046C34.6783 13.5398 34.6783 13.9226 34.4415 14.1595L22.8286 25.6911C22.7093 25.8079 22.5541 25.8679 22.3973 25.8679Z" fill="#C21975" stroke="#C21975"/>
<path d="M36.5908 13.4817C36.4356 13.4817 36.2788 13.4233 36.1612 13.3049L34.4411 11.5968C34.2042 11.3616 34.2042 10.9788 34.4411 10.742C34.6796 10.5068 35.0635 10.5068 35.302 10.742L37.0221 12.45C37.2589 12.6852 37.2589 13.0681 37.0221 13.3049C36.9028 13.4233 36.746 13.4817 36.5908 13.4817Z" fill="#C21975" stroke="#C21975"/>
<path d="M24.5488 25.4398C24.3937 25.4398 24.2368 25.3814 24.1192 25.2629L22.3991 23.5549C22.1623 23.3197 22.1623 22.9369 22.3991 22.7C22.636 22.4648 23.0215 22.4648 23.26 22.7L24.9801 24.4081C25.217 24.6433 25.217 25.0261 24.9801 25.2629C24.8592 25.3814 24.704 25.4398 24.5488 25.4398Z" fill="#C21975" stroke="#C21975"/>
<path d="M19.2036 25.8679C18.1974 25.8679 17.379 25.0552 17.379 24.056C17.379 23.0568 18.1974 22.2441 19.2036 22.2441C20.2099 22.2441 21.0283 23.0568 21.0283 24.056C21.0283 25.0536 20.2099 25.8679 19.2036 25.8679ZM19.2036 23.451C18.8688 23.451 18.596 23.7219 18.596 24.0544C18.596 24.3869 18.8688 24.6578 19.2036 24.6578C19.5385 24.6578 19.8113 24.3869 19.8113 24.0544C19.8113 23.7219 19.5385 23.451 19.2036 23.451Z" fill="#C21975" stroke="#C21975"/>
</svg>
