<svg width="233" height="76" viewBox="0 0 233 76" fill="none" xmlns="http://www.w3.org/2000/svg">
<g clip-path="url(#clip0_42_2182)">
<path d="M50.0031 50.4968H25V75.5H50.0031V50.4968Z" fill="#0E4E96"/>
<path d="M75.0031 25.4937H50V50.4969H75.0031V25.4937Z" fill="#F7941D"/>
<path d="M50 25.4937H0V50.4969H50V25.4937Z" fill="#F7941D"/>
<path d="M24.9937 0.5V25.4937L49.9968 50.5V0.5H24.9937Z" fill="#0061AF"/>
<mask id="mask0_42_2182" style="mask-type:luminance" maskUnits="userSpaceOnUse" x="0" y="0" width="233" height="76">
<path d="M232.291 0.496857H0V75.4969H232.291V0.496857Z" fill="white"/>
</mask>
<g mask="url(#mask0_42_2182)">
<path d="M86.3147 39.7866V45.9792H89.5322C91.8682 45.9792 93.2125 44.8112 93.2125 42.8309C93.2125 40.92 91.7989 39.7866 89.3937 39.7866H86.3147ZM86.3147 29.8823V35.5775H89.0757C91.1599 35.5775 92.3278 34.4441 92.3278 32.6402C92.3278 30.9433 91.1252 29.8823 89.0033 29.8823H86.3147ZM83.7962 50.2922C81.9922 50.2922 81.2493 49.1274 81.2493 47.6414V28.2201C81.2493 26.7341 82.0269 25.5315 83.7962 25.5315H89.422C95.0101 25.5315 97.3461 28.1854 97.3461 31.9003C97.3763 33.0187 97.0816 34.1219 96.4977 35.0762C95.9138 36.0306 95.0657 36.7952 94.0562 37.2775C97.0281 38.266 98.3724 40.495 98.3724 43.1489C98.3724 47.2416 95.5076 50.2922 89.5983 50.2922H83.7962Z" fill="#0E4E96"/>
<path d="M111.327 48.0287V39.1507C111.327 37.3814 110.622 36.6038 109.347 36.6038C107.827 36.6038 106.514 37.9481 106.514 40.8853V48.0287C106.514 49.5146 105.702 50.648 103.97 50.648C102.238 50.648 101.451 49.5146 101.451 48.0287V27.1119C101.451 25.6259 102.229 24.4579 103.97 24.4579C105.711 24.4579 106.514 25.6259 106.514 27.1119V34.6676C107.005 33.9413 107.67 33.3499 108.449 32.9478C109.228 32.5457 110.095 32.3457 110.972 32.3663C114.227 32.3663 116.383 34.57 116.383 38.7697V48.0003C116.383 49.4863 115.571 50.6196 113.865 50.6196C112.096 50.6196 111.315 49.4863 111.315 48.0003" fill="#0E4E96"/>
<path d="M128.435 43.5708C127.628 43.3477 126.797 43.2292 125.96 43.2182C124.547 43.2182 123.697 43.8478 123.697 45.1071C123.697 46.2751 124.509 46.9803 125.749 46.9803C127.374 46.9803 128.435 45.9194 128.435 43.5834M128.721 48.5009C127.777 49.9869 126.278 50.6606 124.44 50.6606C121.364 50.6606 119.169 48.6426 119.169 45.4251C119.169 42.2076 121.373 40.0479 125.57 40.0479C126.538 40.0527 127.501 40.1839 128.435 40.4383V38.9523C128.435 37.4286 127.657 36.7486 126.385 36.7486C124.44 36.7486 123.306 38.1653 121.858 38.1653C121.593 38.1752 121.329 38.1309 121.082 38.0352C120.835 37.9395 120.61 37.7944 120.421 37.6087C120.232 37.423 120.083 37.2006 119.983 36.9553C119.883 36.71 119.835 36.4468 119.84 36.1819C119.84 34.1293 123.061 32.4041 126.634 32.4041C131.019 32.4041 133.459 34.633 133.459 38.9838V48.0759C133.459 49.9491 132.471 50.6574 131.054 50.6574C129.795 50.6574 128.85 50.0561 128.721 48.4977" fill="#0E4E96"/>
<path d="M146.997 41.3796C146.997 38.2314 145.936 36.6038 144.239 36.6038C142.47 36.6038 141.443 38.2314 141.443 41.3796C141.443 44.5278 142.504 46.1555 144.201 46.1555C145.97 46.1555 146.997 44.5278 146.997 41.3796ZM137.772 55.1751C137.762 54.9058 137.808 54.6374 137.905 54.3861C138.003 54.1349 138.15 53.9062 138.339 53.714C138.528 53.5219 138.754 53.3703 139.004 53.2686C139.253 53.1669 139.521 53.1172 139.79 53.1225C140.886 53.1225 141.453 53.9379 143.883 53.9379C145.936 53.9379 147.138 53.0878 147.138 50.3269V48.3844C146.667 49.0064 146.057 49.5095 145.357 49.8534C144.657 50.1973 143.886 50.3724 143.105 50.3646C139.356 50.3646 136.349 47.1818 136.349 41.3796C136.349 35.5082 139.639 32.3946 143.14 32.3946C144.875 32.3946 146.326 32.9613 147.349 34.3056C147.563 33.1722 148.294 32.3946 149.685 32.3946C151.313 32.3946 152.056 33.5248 152.056 35.0108V50.0939C152.056 55.3294 149.049 58.443 144.059 58.443C140.241 58.443 137.763 57.2403 137.763 55.1877" fill="#0E4E96"/>
<path d="M160.94 48.0287C160.94 49.5146 160.162 50.648 158.422 50.648C156.681 50.648 155.875 49.5146 155.875 48.0287V35.0108C155.875 33.5248 156.687 32.3946 158.422 32.3946C160.156 32.3946 160.94 33.5248 160.94 35.0108V48.0287ZM158.422 24.4705C158.789 24.4534 159.156 24.5113 159.5 24.6407C159.844 24.7701 160.159 24.9682 160.424 25.223C160.689 25.4778 160.899 25.784 161.042 26.1228C161.185 26.4616 161.257 26.826 161.255 27.1938C161.255 28.6797 160.087 29.8477 158.422 29.8477C156.687 29.8477 155.588 28.6797 155.588 27.1938C155.588 25.7078 156.684 24.4705 158.422 24.4705Z" fill="#0E4E96"/>
<path d="M167.224 50.648C165.455 50.648 164.677 49.5146 164.677 48.0287V35.0108C164.677 33.528 165.42 32.3946 167.082 32.3946C168.744 32.3946 169.453 33.528 169.453 35.0108V35.3665C170.3 33.2793 171.657 32.3946 173.026 32.3946C174.396 32.3946 175.23 33.1722 175.23 34.5165C175.23 36.3204 174.238 37.1705 172.472 37.1705C170.706 37.1705 169.749 38.266 169.749 40.6335V48.0255C169.749 49.5115 168.971 50.6448 167.23 50.6448" fill="#0E4E96"/>
<path d="M185.94 43.5708C185.134 43.3477 184.302 43.2292 183.466 43.2182C182.052 43.2182 181.202 43.8478 181.202 45.1071C181.202 46.2751 182.014 46.9803 183.255 46.9803C184.879 46.9803 185.94 45.9194 185.94 43.5834M186.226 48.5009C185.282 49.9869 183.783 50.6606 181.945 50.6606C178.869 50.6606 176.675 48.6426 176.675 45.4251C176.675 42.2076 178.879 40.0479 183.075 40.0479C184.043 40.0527 185.006 40.1839 185.94 40.4383V38.9523C185.94 37.4286 185.162 36.7486 183.891 36.7486C181.945 36.7486 180.812 38.1653 179.363 38.1653C179.099 38.1752 178.835 38.1309 178.588 38.0352C178.341 37.9395 178.116 37.7944 177.927 37.6087C177.738 37.423 177.589 37.2006 177.489 36.9553C177.389 36.71 177.34 36.4468 177.345 36.1819C177.345 34.1293 180.566 32.4041 184.139 32.4041C188.525 32.4041 190.965 34.633 190.965 38.9838V48.0759C190.965 49.9491 189.976 50.6574 188.559 50.6574C187.3 50.6574 186.356 50.0561 186.226 48.4977" fill="#0E4E96"/>
<path d="M201.237 50.648C197.91 50.648 195.822 48.737 195.822 44.4932V36.9375H194.658C193.631 36.9375 192.747 36.3078 192.747 34.8502C192.747 33.3926 193.631 32.7976 194.658 32.7976H196.014V31.1731C196.014 29.6871 196.723 28.5538 198.423 28.5538C200.123 28.5538 200.863 29.6871 200.863 31.1731V32.7787H203.696C204.757 32.7787 205.642 33.4083 205.642 34.8313C205.642 36.2543 204.757 36.9186 203.696 36.9186H200.863V44.2067C200.863 45.6927 201.322 46.1523 202.242 46.1523C203.161 46.1523 203.586 45.7273 204.225 45.7273C205.169 45.7273 205.887 46.5395 205.887 47.6162C205.887 49.1368 204.225 50.6574 201.253 50.6574" fill="#0E4E96"/>
<path d="M218.209 48.0287V39.1507C218.209 37.3814 217.501 36.6038 216.229 36.6038C214.709 36.6038 213.396 37.9481 213.396 40.8853V48.0287C213.396 49.5146 212.584 50.648 210.849 50.648C209.114 50.648 208.33 49.5146 208.33 48.0287V27.1119C208.33 25.6259 209.108 24.4579 210.849 24.4579C212.59 24.4579 213.396 25.6259 213.396 27.1119V34.6676C213.887 33.9413 214.552 33.3499 215.331 32.9478C216.11 32.5457 216.977 32.3457 217.854 32.3663C221.109 32.3663 223.265 34.57 223.265 38.7697V48.0003C223.265 49.4863 222.453 50.6196 220.747 50.6196C218.974 50.6196 218.197 49.4863 218.197 48.0003" fill="#0E4E96"/>
<path d="M231.973 48.0287C231.973 49.5146 231.196 50.648 229.455 50.648C227.714 50.648 226.908 49.5146 226.908 48.0287V35.0108C226.908 33.5248 227.72 32.3946 229.455 32.3946C231.189 32.3946 231.973 33.5248 231.973 35.0108V48.0287ZM229.455 24.4705C229.822 24.4534 230.189 24.5113 230.533 24.6407C230.877 24.7701 231.192 24.9682 231.457 25.223C231.722 25.4778 231.932 25.784 232.075 26.1228C232.218 26.4616 232.291 26.826 232.288 27.1938C232.288 28.6797 231.12 29.8477 229.455 29.8477C227.72 29.8477 226.621 28.6797 226.621 27.1938C226.621 25.7078 227.717 24.4705 229.455 24.4705Z" fill="#0E4E96"/>
</g>
<path d="M67.7938 0.5V7.29386L67.989 10.3382L61.7303 0.5H56.2524V19.3862H61.9255V12.3877L61.7303 9.31186L67.989 19.3862H73.6652V0.5H67.7938Z" fill="#F7941D"/>
<mask id="mask1_42_2182" style="mask-type:luminance" maskUnits="userSpaceOnUse" x="0" y="0" width="233" height="76">
<path d="M232.291 0.496857H0V75.4969H232.291V0.496857Z" fill="white"/>
</mask>
<g mask="url(#mask1_42_2182)">
<path d="M79.6687 10.7412C79.8985 9.93207 80.2228 9.40002 80.6383 9.13872C81.0983 8.86796 81.6254 8.73264 82.1589 8.74833C82.7308 8.73672 83.2958 8.87338 83.7992 9.14501C84.2714 9.40946 84.6051 9.93836 84.7972 10.7412H79.6687ZM89.4282 9.6865C88.8912 8.47836 88.0639 7.42174 87.0198 6.6107C85.8801 5.67463 84.1895 5.20659 81.948 5.20659C79.4294 5.20659 77.5311 5.95272 76.2529 7.44497C75.0252 8.79088 74.3204 10.5321 74.2664 12.353V12.6301C74.297 14.458 74.9932 16.212 76.2245 17.5633C77.509 19.0598 79.398 19.807 81.8913 19.8049H82.1495C84.6051 19.8049 86.4269 19.3316 87.6148 18.385C88.8027 17.4385 89.4943 16.3492 89.6895 15.1172H84.391V15.1487C84.3494 15.3377 84.2689 15.5159 84.1545 15.6721C84.0401 15.8282 83.8944 15.9587 83.7267 16.0554C83.3632 16.2881 82.94 16.4105 82.5084 16.408C82.4252 16.4087 82.3421 16.4034 82.2597 16.3922C82.1778 16.3845 82.0967 16.3697 82.0173 16.3481C81.4723 16.2391 80.9749 15.9629 80.5943 15.5579C80.1287 15.0388 79.8709 14.3663 79.8702 13.669H90.1019V13.0834C90.0946 12.5683 90.0461 12.0545 89.9571 11.5471C89.8488 10.9106 89.6748 10.287 89.4376 9.6865" fill="#F7941D"/>
<path d="M132.105 14.1129C132.105 14.2661 132.09 14.4189 132.061 14.5694C132.036 14.7335 131.995 14.8948 131.939 15.0511C131.88 15.2508 131.797 15.4423 131.69 15.6209C131.571 15.8162 131.43 15.9977 131.271 16.1624C131.136 16.2752 130.987 16.3695 130.827 16.4426C130.65 16.5275 130.463 16.5909 130.27 16.6315C130.201 16.6263 130.131 16.6263 130.062 16.6315C129.992 16.6418 129.922 16.647 129.851 16.6472C129.483 16.6534 129.121 16.5516 128.809 16.3544C128.666 16.2711 128.548 16.1509 128.467 16.0064C128.386 15.8619 128.346 15.6983 128.35 15.5328C128.329 15.3205 128.374 15.107 128.479 14.9212C128.584 14.7355 128.743 14.5863 128.935 14.4938C129.36 14.2962 129.809 14.1534 130.27 14.0688L130.478 14.009C130.545 13.9899 130.615 13.9804 130.686 13.9807C130.928 13.9209 131.164 13.8547 131.397 13.776C131.628 13.6999 131.848 13.594 132.052 13.4612V13.4896C132.049 13.5336 132.049 13.5777 132.052 13.6218C132.057 13.6752 132.057 13.7289 132.052 13.7823V13.8988C132.073 13.9234 132.083 13.955 132.08 13.987L132.105 14.1129ZM137.697 18.256C137.584 17.9626 137.528 17.6508 137.53 17.3367V10.1619C137.533 10.1231 137.533 10.0842 137.53 10.0454C137.52 10.0063 137.515 9.96613 137.514 9.92577C137.428 8.75912 137.03 7.63702 136.362 6.67681C135.682 5.70086 133.924 5.21289 131.089 5.21289C128.066 5.21289 126.114 5.62321 125.233 6.44385C124.351 7.26448 123.763 8.42512 123.467 9.92577L128.753 9.95725C128.768 9.74775 128.839 9.5462 128.959 9.37348C129.078 9.20077 129.242 9.06319 129.433 8.97501C129.834 8.82093 130.262 8.74609 130.692 8.75464C131.013 8.73666 131.333 8.81328 131.611 8.97501C131.809 9.08822 131.957 9.27126 132.027 9.48817C132.023 9.51218 132.023 9.53657 132.027 9.56058C132.037 9.59425 132.042 9.62926 132.043 9.66447C132.043 9.69868 132.037 9.73271 132.027 9.76521C132.021 9.7996 132.021 9.83471 132.027 9.8691C131.978 10.0274 131.887 10.1692 131.762 10.2784C131.627 10.4138 131.46 10.5142 131.277 10.5712C130.99 10.6607 130.698 10.7342 130.402 10.7915C130.056 10.8576 129.691 10.9112 129.304 10.9521C129.042 10.993 128.775 11.0308 128.494 11.0686C128.214 11.1064 127.94 11.1567 127.66 11.2165C126.928 11.331 126.206 11.5069 125.504 11.7423C124.862 11.9418 124.29 12.317 123.851 12.8253C123.681 13.0193 123.531 13.2303 123.404 13.4549C123.28 13.67 123.174 13.8954 123.089 14.1286C123.018 14.3534 122.962 14.5827 122.922 14.815C122.886 15.0334 122.868 15.2546 122.869 15.4761C122.865 15.7899 122.901 16.103 122.976 16.408C123.048 16.7228 123.124 16.9809 123.196 17.2139C123.253 17.3335 123.3 17.4343 123.338 17.5287C123.375 17.6232 123.41 17.6987 123.448 17.7774C123.805 18.4495 124.393 18.9695 125.104 19.2414C125.835 19.535 126.611 19.7031 127.399 19.7388H127.676C127.801 19.7453 127.926 19.7453 128.051 19.7388C128.173 19.7388 128.296 19.7388 128.428 19.7388C129.245 19.6656 130.045 19.4726 130.805 19.1658C131.453 18.941 132.019 18.5291 132.433 17.9821L132.628 19.4145H138.295V19.0367C138.023 18.8517 137.81 18.5913 137.684 18.2874" fill="#F7941D"/>
</g>
<path d="M116.582 19.3862H121.893V7.46071L116.582 10.5397V19.3862Z" fill="#F7941D"/>
<mask id="mask2_42_2182" style="mask-type:luminance" maskUnits="userSpaceOnUse" x="0" y="0" width="233" height="76">
<path d="M232.291 0.496857H0V75.4969H232.291V0.496857Z" fill="white"/>
</mask>
<g mask="url(#mask2_42_2182)">
<path d="M100.545 12.9858C100.535 13.197 100.512 13.4073 100.475 13.6155C100.387 14.226 100.179 14.8131 99.8647 15.3438C99.7201 15.5966 99.5081 15.8044 99.2524 15.9439C98.9968 16.0834 98.7074 16.1492 98.4165 16.1341C98.117 16.1441 97.8199 16.0766 97.554 15.9382C97.2882 15.7998 97.0626 15.595 96.8991 15.3438C96.5408 14.8229 96.2913 14.2351 96.1656 13.6155C96.1104 13.4091 96.0725 13.1985 96.0522 12.9858C96.0333 12.7812 96.0239 12.5797 96.0239 12.3877C96.0239 12.2491 96.0239 12.1138 96.0396 11.9784C96.0554 11.843 96.0617 11.7045 96.0806 11.566C96.1899 10.964 96.4214 10.3908 96.7606 9.88169C96.9146 9.63571 97.1307 9.43463 97.3872 9.29868C97.6436 9.16272 97.9313 9.09669 98.2213 9.10722C98.534 9.08601 98.8469 9.14621 99.1294 9.28194C99.4119 9.41768 99.6544 9.62431 99.8332 9.88169C100.181 10.3852 100.411 10.9611 100.504 11.566C100.52 11.7045 100.535 11.8399 100.545 11.9784C100.554 12.1169 100.56 12.2491 100.56 12.3877C100.56 12.5797 100.56 12.7812 100.545 12.9858ZM103.693 7.18996C102.446 6.12928 100.912 5.4621 99.2854 5.2727C99.1186 5.25066 98.9454 5.23806 98.7691 5.22547C98.5928 5.21288 98.4134 5.20343 98.2276 5.1814V5.21288C97.8367 5.21389 97.4463 5.24335 97.0597 5.30103C96.6458 5.35941 96.2366 5.44673 95.835 5.56233C94.5149 5.97087 93.3223 6.71248 92.372 7.71571C91.3226 8.77981 90.7979 10.3466 90.7979 12.416C90.7979 15.0899 91.544 16.9977 93.0362 18.1395C94.4435 19.2491 96.1582 19.8987 97.9475 20.0001H98.7534C98.8653 19.9991 98.977 19.9886 99.0871 19.9686C100.794 19.8452 102.419 19.1901 103.734 18.0954C105.14 16.9662 105.844 15.2001 105.846 12.7969V12.416C105.756 10.036 105.038 8.29394 103.693 7.18996Z" fill="#F7941D"/>
<path d="M115.275 15.5485H115.08C115.027 15.5692 114.97 15.5799 114.913 15.58H114.746C114.057 15.58 113.588 15.4414 113.326 15.1675C113.193 15.0218 113.09 14.851 113.023 14.6651C112.956 14.4792 112.926 14.2819 112.936 14.0846V9.10722H115.379V5.79845H112.936V1.70576H107.845V5.79845H105.705V9.10722H107.653V15.9577C107.653 17.3849 108.043 18.3294 108.821 18.7911C109.6 19.2529 110.777 19.4879 112.354 19.4963C112.798 19.4963 113.298 19.4963 113.811 19.4649C114.324 19.4334 114.894 19.4176 115.467 19.3799V15.5485H115.275Z" fill="#F7941D"/>
</g>
<path d="M116.582 1.48854V4.36601L121.893 7.42293V3.76785L116.582 0.6763V1.48854Z" fill="#F7941D"/>
<mask id="mask3_42_2182" style="mask-type:luminance" maskUnits="userSpaceOnUse" x="0" y="0" width="233" height="76">
<path d="M232.291 0.496857H0V75.4969H232.291V0.496857Z" fill="white"/>
</mask>
<g mask="url(#mask3_42_2182)">
<path d="M63.2067 70.359C62.4628 68.4757 61.9194 66.5193 61.5854 64.5222C61.2561 66.5186 60.7179 68.475 59.9798 70.359C59.7815 70.8816 59.5013 71.0547 59.114 71.0547C58.7268 71.0547 58.4435 70.8532 58.1696 70.3464C56.712 67.5791 56.2177 64.1475 56.2177 62.0634C56.207 61.9828 56.2142 61.9008 56.2386 61.8232C56.263 61.7456 56.3041 61.6743 56.359 61.6143C56.4139 61.5543 56.4813 61.5071 56.5564 61.4759C56.6315 61.4447 56.7125 61.4303 56.7938 61.4338C56.9335 61.4329 57.0679 61.4874 57.1676 61.5853C57.2673 61.6833 57.3242 61.8166 57.3259 61.9564C57.4864 65.2966 58.2231 67.9537 59.1298 69.7577C60.0864 67.2418 60.7283 64.6172 61.0408 61.9438C61.0408 61.7985 61.0985 61.6592 61.2012 61.5564C61.3039 61.4537 61.4433 61.396 61.5885 61.396C61.7338 61.396 61.8732 61.4537 61.9759 61.5564C62.0786 61.6592 62.1363 61.7985 62.1363 61.9438C62.4549 64.6202 63.0966 67.2482 64.0473 69.7703C64.9414 67.9695 65.6875 65.2966 65.8512 61.9564C65.8512 61.8869 65.865 61.8182 65.8919 61.7542C65.9187 61.6902 65.9581 61.6321 66.0076 61.5835C66.0572 61.5348 66.1159 61.4965 66.1804 61.4708C66.2449 61.4451 66.3139 61.4325 66.3833 61.4338C66.4643 61.4308 66.545 61.4455 66.6197 61.4769C66.6944 61.5083 66.7614 61.5556 66.8159 61.6156C66.8705 61.6755 66.9113 61.7467 66.9355 61.824C66.9598 61.9014 66.9668 61.983 66.9563 62.0634C66.9563 64.1475 66.4651 67.5948 65.0075 70.3464C64.7399 70.8532 64.5006 71.0547 64.063 71.0547C63.6254 71.0547 63.383 70.8816 63.1815 70.359" fill="#0061AF"/>
<path d="M72.2421 67.6861C72.2421 66.005 71.5463 65.284 70.668 65.284C69.7235 65.284 69.0939 66.0176 69.0939 67.6861C69.0939 69.3547 69.7896 70.0788 70.668 70.0788C71.6282 70.0788 72.2421 69.3578 72.2421 67.6861ZM67.9385 67.6861C67.9385 65.5642 69.075 64.3081 70.6648 64.3081C72.2547 64.3081 73.3755 65.5894 73.3755 67.6861C73.3755 69.7828 72.2421 71.0547 70.6648 71.0547C69.0876 71.0547 67.9385 69.7703 67.9385 67.6861Z" fill="#0061AF"/>
<path d="M82.7541 70.466V66.7259C82.7541 65.7374 82.3416 65.3092 81.5924 65.3092C80.7109 65.3092 79.9616 66.0711 79.9616 67.5665V70.466C79.9616 70.6163 79.9019 70.7604 79.7956 70.8667C79.6893 70.973 79.5452 71.0327 79.3949 71.0327C79.2446 71.0327 79.1005 70.973 78.9942 70.8667C78.8879 70.7604 78.8282 70.6163 78.8282 70.466V66.7259C78.8282 65.7374 78.4127 65.3092 77.6665 65.3092C76.7693 65.3092 76.0358 66.0711 76.0358 67.5665V70.466C76.0438 70.5439 76.0347 70.6227 76.0089 70.6967C75.9832 70.7707 75.9416 70.8382 75.8869 70.8944C75.8323 70.9505 75.766 70.994 75.6927 71.0217C75.6194 71.0494 75.5409 71.0607 75.4628 71.0547C75.3853 71.0604 75.3074 71.0489 75.2349 71.0209C75.1624 70.9929 75.097 70.9492 75.0434 70.8929C74.9898 70.8366 74.9493 70.7691 74.925 70.6953C74.9006 70.6215 74.8929 70.5432 74.9024 70.466V64.8905C74.9024 64.7452 74.9601 64.6059 75.0628 64.5032C75.1656 64.4004 75.3049 64.3427 75.4502 64.3427C75.5955 64.3427 75.7348 64.4004 75.8375 64.5032C75.9403 64.6059 75.998 64.7452 75.998 64.8905V65.4635C76.1745 65.114 76.4445 64.8204 76.778 64.6153C77.1115 64.4102 77.4954 64.3017 77.8869 64.3018C78.3067 64.2699 78.7251 64.3806 79.0741 64.616C79.4232 64.8514 79.6827 65.1977 79.8105 65.5989C79.9877 65.2156 80.2697 64.8904 80.6241 64.6609C80.9784 64.4313 81.3906 64.3068 81.8127 64.3018C83.1098 64.3018 83.9095 65.1298 83.9095 66.6661V70.444C83.9153 70.523 83.9048 70.6024 83.8786 70.6772C83.8524 70.7519 83.811 70.8205 83.7571 70.8786C83.7031 70.9366 83.6378 70.983 83.5652 71.0146C83.4925 71.0463 83.4141 71.0627 83.3349 71.0627C83.2557 71.0627 83.1773 71.0463 83.1046 71.0146C83.032 70.983 82.9667 70.9366 82.9127 70.8786C82.8588 70.8205 82.8175 70.7519 82.7912 70.6772C82.765 70.6024 82.7545 70.523 82.7604 70.444" fill="#0061AF"/>
<path d="M89.0914 68.3819V68.2371C88.6328 68.0941 88.1551 68.0219 87.6747 68.023C86.8467 68.023 86.3651 68.3945 86.3651 69.0902C86.3651 69.786 86.8342 70.1575 87.5394 70.1575C88.424 70.1575 89.0914 69.6097 89.0914 68.3819ZM89.1166 70.4786V70.1638C88.9276 70.4522 88.6669 70.6865 88.36 70.8438C88.0532 71.0011 87.7107 71.076 87.3662 71.061C86.1258 71.061 85.2947 70.3117 85.2947 69.1375C85.2947 67.9632 86.1258 67.173 87.6212 67.173C88.1198 67.1749 88.6154 67.2513 89.0914 67.3996V66.5843C89.0914 65.6902 88.6507 65.325 87.8479 65.325C86.8877 65.325 86.4312 65.9137 86.0188 65.9137C85.9586 65.9154 85.8987 65.9049 85.8428 65.8827C85.7868 65.8606 85.736 65.8273 85.6933 65.7849C85.6506 65.7425 85.617 65.6919 85.5944 65.6361C85.5719 65.5803 85.561 65.5205 85.5623 65.4603C85.5623 64.9377 86.6736 64.3238 87.8731 64.3238C89.3968 64.3238 90.2248 65.0983 90.2248 66.6094V70.4943C90.2248 70.5671 90.2105 70.6392 90.1826 70.7064C90.1548 70.7736 90.1139 70.8347 90.0625 70.8861C90.011 70.9376 89.95 70.9784 89.8827 71.0062C89.8155 71.0341 89.7435 71.0484 89.6707 71.0484C89.5979 71.0484 89.5259 71.0341 89.4587 71.0062C89.3914 70.9784 89.3304 70.9376 89.2789 70.8861C89.2274 70.8347 89.1866 70.7736 89.1588 70.7064C89.131 70.6392 89.1166 70.5671 89.1166 70.4943" fill="#0061AF"/>
<path d="M96.0929 70.466V66.7259C96.0929 65.7374 95.6774 65.3092 94.9155 65.3092C93.9711 65.3092 93.1808 66.0711 93.1808 67.5665V70.466C93.1884 70.5441 93.1788 70.6229 93.1527 70.6969C93.1266 70.7709 93.0847 70.8383 93.0298 70.8944C92.9749 70.9505 92.9084 70.9939 92.835 71.0216C92.7616 71.0493 92.683 71.0606 92.6047 71.0547C92.5272 71.0604 92.4494 71.0489 92.3769 71.0209C92.3043 70.9929 92.2389 70.9492 92.1853 70.8929C92.1317 70.8366 92.0913 70.7691 92.0669 70.6953C92.0425 70.6215 92.0348 70.5432 92.0443 70.466V64.8905C92.0345 64.8144 92.0416 64.737 92.065 64.6639C92.0885 64.5908 92.1277 64.5238 92.18 64.4676C92.2323 64.4114 92.2964 64.3674 92.3676 64.3387C92.4388 64.3101 92.5155 64.2975 92.5921 64.3018C92.6691 64.2963 92.7463 64.3081 92.818 64.3364C92.8898 64.3646 92.9543 64.4086 93.0069 64.4651C93.0594 64.5216 93.0987 64.5891 93.1217 64.6627C93.1447 64.7363 93.1509 64.8142 93.1399 64.8905V65.5202C93.331 65.1578 93.6172 64.8544 93.9678 64.6425C94.3183 64.4307 94.72 64.3183 95.1296 64.3175C96.4393 64.3175 97.2421 65.1455 97.2421 66.6819V70.4597C97.2479 70.5387 97.2374 70.6181 97.2112 70.6929C97.185 70.7677 97.1436 70.8362 97.0897 70.8943C97.0357 70.9524 96.9704 70.9987 96.8978 71.0304C96.8251 71.0621 96.7467 71.0784 96.6675 71.0784C96.5883 71.0784 96.5099 71.0621 96.4372 71.0304C96.3646 70.9987 96.2993 70.9524 96.2453 70.8943C96.1914 70.8362 96.15 70.7677 96.1238 70.6929C96.0976 70.6181 96.0871 70.5387 96.0929 70.4597" fill="#0061AF"/>
<path d="M105.298 68.3819V68.2371C104.84 68.0941 104.362 68.0219 103.882 68.023C103.054 68.023 102.572 68.3945 102.572 69.0902C102.572 69.786 103.041 70.1575 103.75 70.1575C104.631 70.1575 105.298 69.6097 105.298 68.3819ZM105.327 70.4786V70.1638C105.138 70.452 104.877 70.6861 104.57 70.8434C104.263 71.0007 103.921 71.0757 103.576 71.061C102.333 71.061 101.505 70.3117 101.505 69.1375C101.505 67.9632 102.333 67.173 103.828 67.173C104.327 67.1749 104.822 67.2513 105.298 67.3996V66.5843C105.298 65.6902 104.858 65.325 104.039 65.325C103.095 65.325 102.623 65.9137 102.21 65.9137C102.15 65.9154 102.09 65.9049 102.035 65.8827C101.979 65.8606 101.928 65.8272 101.886 65.7848C101.843 65.7423 101.81 65.6916 101.788 65.6359C101.766 65.5801 101.755 65.5203 101.757 65.4603C101.757 64.9377 102.865 64.3238 104.068 64.3238C105.591 64.3238 106.416 65.0983 106.416 66.6094V70.4943C106.422 70.5704 106.412 70.6468 106.387 70.7188C106.362 70.7909 106.322 70.8569 106.27 70.9128C106.218 70.9688 106.155 71.0134 106.085 71.0439C106.015 71.0744 105.94 71.0902 105.864 71.0902C105.787 71.0902 105.712 71.0744 105.642 71.0439C105.572 71.0134 105.509 70.9688 105.457 70.9128C105.405 70.8569 105.366 70.7909 105.341 70.7188C105.315 70.6468 105.305 70.5704 105.311 70.4943" fill="#0061AF"/>
<path d="M112.3 70.466V66.7259C112.3 65.7374 111.884 65.3092 111.123 65.3092C110.178 65.3092 109.388 66.0711 109.388 67.5665V70.466C109.395 70.5441 109.386 70.6229 109.36 70.6969C109.334 70.7709 109.292 70.8383 109.237 70.8944C109.182 70.9505 109.115 70.9939 109.042 71.0216C108.969 71.0493 108.89 71.0606 108.812 71.0547C108.734 71.0599 108.657 71.0479 108.585 71.0197C108.512 70.9916 108.447 70.9478 108.394 70.8916C108.34 70.8355 108.3 70.7682 108.275 70.6947C108.251 70.6211 108.242 70.543 108.251 70.466V64.8905C108.242 64.8145 108.25 64.7373 108.273 64.6645C108.297 64.5916 108.336 64.5248 108.388 64.4688C108.441 64.4127 108.504 64.3687 108.575 64.3399C108.646 64.311 108.723 64.298 108.799 64.3018C108.876 64.2963 108.953 64.3081 109.025 64.3364C109.097 64.3646 109.161 64.4086 109.214 64.4651C109.267 64.5216 109.306 64.5891 109.329 64.6627C109.352 64.7363 109.358 64.8142 109.347 64.8905V65.5202C109.538 65.1581 109.825 64.8548 110.175 64.643C110.526 64.4311 110.927 64.3186 111.337 64.3175C112.646 64.3175 113.449 65.1455 113.449 66.6819V70.4597C113.455 70.5387 113.444 70.6181 113.418 70.6929C113.392 70.7677 113.351 70.8362 113.297 70.8943C113.243 70.9524 113.177 70.9987 113.105 71.0304C113.032 71.0621 112.954 71.0784 112.875 71.0784C112.795 71.0784 112.717 71.0621 112.644 71.0304C112.572 70.9987 112.506 70.9524 112.452 70.8943C112.398 70.8362 112.357 70.7677 112.331 70.6929C112.305 70.6181 112.294 70.5387 112.3 70.4597" fill="#0061AF"/>
<path d="M119.22 67.6735C119.22 66.0711 118.552 65.3092 117.646 65.3092C116.657 65.3092 116.015 66.0711 116.015 67.6861C116.015 69.3012 116.711 70.0536 117.605 70.0536C118.593 70.0536 119.207 69.276 119.207 67.6735M119.248 70.466V70.0788C119.056 70.3795 118.791 70.6267 118.478 70.7973C118.165 70.968 117.813 71.0565 117.457 71.0547C115.974 71.0547 114.866 69.7734 114.866 67.6861C114.866 65.5989 116.027 64.3081 117.498 64.3081C117.831 64.3011 118.16 64.3755 118.458 64.5247C118.756 64.6739 119.013 64.8935 119.207 65.1644V61.7706C119.199 61.6919 119.209 61.6124 119.234 61.5375C119.26 61.4627 119.302 61.3944 119.357 61.3373C119.411 61.2801 119.478 61.2355 119.552 61.2065C119.625 61.1775 119.704 61.1648 119.783 61.1693C119.862 61.165 119.94 61.178 120.013 61.2073C120.085 61.2365 120.151 61.2815 120.204 61.3388C120.258 61.3962 120.298 61.4646 120.322 61.5392C120.346 61.6138 120.353 61.6928 120.344 61.7706V70.466C120.353 70.5421 120.346 70.6195 120.323 70.6926C120.299 70.7657 120.26 70.8327 120.208 70.8889C120.156 70.9452 120.092 70.9891 120.02 71.0178C119.949 71.0464 119.872 71.059 119.796 71.0547C119.719 71.0602 119.642 71.0484 119.57 71.0201C119.498 70.9919 119.434 70.9479 119.381 70.8914C119.329 70.835 119.289 70.7674 119.266 70.6938C119.243 70.6202 119.237 70.5423 119.248 70.466Z" fill="#0061AF"/>
<path d="M124.865 66.2317C124.865 62.8914 126.294 61.4369 128.403 61.4369C129.7 61.4369 130.66 61.9438 130.66 62.4381C130.663 62.5044 130.653 62.5706 130.629 62.6326C130.606 62.6946 130.569 62.7512 130.523 62.7987C130.477 62.8462 130.421 62.8837 130.36 62.9089C130.298 62.934 130.232 62.9463 130.166 62.9449C129.82 62.9449 129.458 62.5168 128.457 62.5168C126.92 62.5168 126.055 63.6533 126.055 66.2317C126.055 68.8101 126.936 69.9843 128.498 69.9843C129.511 69.9843 129.873 69.5593 130.22 69.5593C130.284 69.558 130.349 69.5699 130.409 69.5944C130.468 69.6189 130.523 69.6555 130.568 69.7019C130.613 69.7482 130.648 69.8034 130.671 69.8639C130.694 69.9244 130.704 69.9889 130.701 70.0536C130.701 70.5856 129.688 71.0547 128.444 71.0547C126.306 71.0547 124.865 69.5971 124.865 66.2317Z" fill="#0061AF"/>
<path d="M136.069 70.466V66.7259C136.069 65.7374 135.644 65.3092 134.882 65.3092C133.938 65.3092 133.144 66.0711 133.144 67.5665V70.466C133.154 70.5432 133.146 70.6215 133.122 70.6953C133.098 70.7691 133.057 70.8366 133.003 70.8929C132.95 70.9492 132.884 70.9929 132.812 71.0209C132.739 71.0489 132.662 71.0604 132.584 71.0547C132.506 71.0607 132.427 71.0494 132.354 71.0217C132.281 70.994 132.215 70.9505 132.16 70.8943C132.105 70.8382 132.064 70.7707 132.038 70.6967C132.012 70.6227 132.003 70.5439 132.011 70.466V61.7706C132.003 61.692 132.012 61.6126 132.037 61.5378C132.062 61.4629 132.104 61.3945 132.158 61.3373C132.213 61.2801 132.279 61.2355 132.353 61.2064C132.426 61.1774 132.505 61.1648 132.584 61.1693C132.663 61.1639 132.741 61.176 132.815 61.2049C132.888 61.2338 132.954 61.2787 133.008 61.3364C133.061 61.394 133.102 61.4629 133.125 61.538C133.149 61.6131 133.155 61.6926 133.144 61.7706V65.4415C133.345 65.0979 133.632 64.8127 133.976 64.6139C134.321 64.4151 134.711 64.3097 135.109 64.3081C136.406 64.3081 137.206 65.1361 137.206 66.6724V70.4503C137.211 70.5284 137.201 70.607 137.175 70.681C137.149 70.755 137.108 70.8228 137.055 70.8803C137.002 70.9377 136.937 70.9836 136.865 71.0149C136.793 71.0462 136.716 71.0624 136.637 71.0624C136.559 71.0624 136.481 71.0462 136.41 71.0149C136.338 70.9836 136.273 70.9377 136.22 70.8803C136.166 70.8228 136.126 70.755 136.1 70.681C136.074 70.607 136.063 70.5284 136.069 70.4503" fill="#0061AF"/>
<path d="M140.187 70.466C140.195 70.5441 140.185 70.6229 140.159 70.6969C140.133 70.7709 140.091 70.8383 140.036 70.8944C139.981 70.9505 139.915 70.9939 139.841 71.0216C139.768 71.0493 139.689 71.0606 139.611 71.0547C139.533 71.0604 139.456 71.0489 139.383 71.0209C139.31 70.9929 139.245 70.9492 139.191 70.8929C139.138 70.8366 139.097 70.7691 139.073 70.6953C139.049 70.6215 139.041 70.5432 139.05 70.466V64.8905C139.045 64.8123 139.055 64.7338 139.081 64.6598C139.107 64.5858 139.148 64.518 139.201 64.4605C139.254 64.4031 139.319 64.3572 139.391 64.3259C139.463 64.2945 139.54 64.2784 139.619 64.2784C139.697 64.2784 139.775 64.2945 139.847 64.3259C139.918 64.3572 139.983 64.4031 140.036 64.4605C140.09 64.518 140.131 64.5858 140.157 64.6598C140.182 64.7338 140.193 64.8123 140.187 64.8905V70.466ZM139.611 61.1693C139.705 61.1663 139.8 61.1825 139.888 61.2169C139.976 61.2512 140.056 61.303 140.124 61.3692C140.192 61.4353 140.245 61.5145 140.281 61.6019C140.318 61.6893 140.336 61.7831 140.335 61.8777C140.337 61.9726 140.32 62.0671 140.284 62.1551C140.248 62.2431 140.195 62.3228 140.127 62.3892C140.059 62.4557 139.978 62.5074 139.889 62.5413C139.801 62.5751 139.706 62.5904 139.611 62.586C139.516 62.5909 139.421 62.576 139.333 62.5422C139.244 62.5085 139.163 62.4567 139.096 62.39C139.028 62.3234 138.975 62.2434 138.941 62.1552C138.906 62.067 138.889 61.9725 138.893 61.8777C138.89 61.7831 138.907 61.689 138.942 61.6012C138.978 61.5135 139.031 61.4339 139.098 61.3674C139.165 61.301 139.246 61.2491 139.334 61.215C139.422 61.181 139.516 61.1654 139.611 61.1693Z" fill="#0061AF"/>
<path d="M143.219 70.466C143.228 70.5432 143.22 70.6215 143.196 70.6953C143.172 70.7691 143.131 70.8366 143.078 70.8929C143.024 70.9492 142.959 70.9929 142.886 71.0209C142.814 71.0489 142.736 71.0604 142.658 71.0547C142.58 71.0607 142.502 71.0494 142.428 71.0217C142.355 70.994 142.289 70.9505 142.234 70.8943C142.18 70.8382 142.138 70.7707 142.112 70.6967C142.086 70.6227 142.077 70.5439 142.085 70.466V61.7706C142.077 61.692 142.086 61.6126 142.111 61.5378C142.137 61.4629 142.178 61.3945 142.233 61.3373C142.287 61.2801 142.353 61.2355 142.427 61.2064C142.5 61.1774 142.579 61.1648 142.658 61.1693C142.737 61.1639 142.816 61.176 142.889 61.2049C142.962 61.2338 143.028 61.2787 143.082 61.3364C143.136 61.394 143.176 61.4629 143.199 61.538C143.223 61.6131 143.23 61.6926 143.219 61.7706V70.466Z" fill="#0061AF"/>
<path d="M149.071 67.6735C149.071 66.0711 148.404 65.3092 147.497 65.3092C146.508 65.3092 145.866 66.0711 145.866 67.6861C145.866 69.3012 146.562 70.0536 147.44 70.0536C148.429 70.0536 149.043 69.276 149.043 67.6735M149.084 70.466V70.0788C148.892 70.3793 148.627 70.6263 148.313 70.7969C148 70.9675 147.649 71.0562 147.292 71.0547C145.81 71.0547 144.701 69.7734 144.701 67.6861C144.701 65.5989 145.863 64.3081 147.333 64.3081C147.666 64.3014 147.996 64.3759 148.294 64.5251C148.592 64.6742 148.849 64.8937 149.043 65.1644V61.7706C149.035 61.6919 149.044 61.6124 149.07 61.5375C149.096 61.4627 149.138 61.3944 149.192 61.3373C149.247 61.2801 149.314 61.2355 149.387 61.2065C149.461 61.1775 149.54 61.1648 149.619 61.1693C149.697 61.165 149.776 61.178 149.848 61.2073C149.921 61.2365 149.986 61.2815 150.04 61.3388C150.093 61.3962 150.134 61.4646 150.158 61.5392C150.182 61.6138 150.189 61.6928 150.179 61.7706V70.466C150.189 70.5421 150.182 70.6195 150.159 70.6926C150.135 70.7657 150.096 70.8327 150.044 70.8889C149.991 70.9452 149.927 70.9891 149.856 71.0178C149.785 71.0464 149.708 71.059 149.632 71.0547C149.555 71.0602 149.477 71.0484 149.406 71.0201C149.334 70.9919 149.269 70.9479 149.217 70.8914C149.164 70.835 149.125 70.7674 149.102 70.6938C149.079 70.6202 149.073 70.5423 149.084 70.466Z" fill="#0061AF"/>
<path d="M154.713 66.2317C154.713 62.8914 156.139 61.4369 158.251 61.4369C159.549 61.4369 160.509 61.9438 160.509 62.4381C160.511 62.5042 160.5 62.5703 160.477 62.6321C160.453 62.6939 160.417 62.7503 160.371 62.7977C160.324 62.8451 160.269 62.8826 160.208 62.9079C160.146 62.9332 160.081 62.9458 160.014 62.9449C159.668 62.9449 159.306 62.5168 158.305 62.5168C156.769 62.5168 155.9 63.6533 155.9 66.2317C155.9 68.8101 156.781 69.9843 158.346 69.9843C159.36 69.9843 159.722 69.5593 160.068 69.5593C160.133 69.558 160.197 69.5699 160.257 69.5944C160.317 69.6189 160.371 69.6555 160.416 69.7019C160.461 69.7482 160.497 69.8034 160.519 69.8639C160.542 69.9244 160.553 69.9889 160.55 70.0536C160.55 70.5856 159.533 71.0547 158.292 71.0547C156.155 71.0547 154.713 69.5971 154.713 66.2317Z" fill="#0061AF"/>
<path d="M165.212 68.3819V68.2371C164.755 68.0938 164.278 68.0216 163.799 68.023C162.971 68.023 162.486 68.3945 162.486 69.0902C162.486 69.786 162.955 70.1575 163.663 70.1575C164.545 70.1575 165.212 69.6097 165.212 68.3819ZM165.24 70.4786V70.1638C165.051 70.4522 164.791 70.6865 164.484 70.8438C164.177 71.0011 163.834 71.076 163.49 71.061C162.231 71.061 161.418 70.3117 161.418 69.1375C161.418 67.9632 162.246 67.173 163.742 67.173C164.24 67.1749 164.736 67.2513 165.212 67.3996V66.5843C165.212 65.6902 164.774 65.325 163.972 65.325C163.008 65.325 162.555 65.9137 162.139 65.9137C162.08 65.915 162.02 65.9041 161.964 65.8818C161.909 65.8595 161.858 65.8261 161.816 65.7838C161.774 65.7414 161.74 65.6909 161.718 65.6353C161.696 65.5798 161.685 65.5202 161.686 65.4603C161.686 64.9377 162.794 64.3238 163.997 64.3238C165.521 64.3238 166.349 65.0983 166.349 66.6094V70.4943C166.349 70.6413 166.29 70.7822 166.186 70.8861C166.082 70.99 165.941 71.0484 165.794 71.0484C165.648 71.0484 165.507 70.99 165.403 70.8861C165.299 70.7822 165.24 70.6413 165.24 70.4943" fill="#0061AF"/>
<path d="M168.729 71.0547C168.651 71.0603 168.573 71.0488 168.5 71.0208C168.428 70.9928 168.362 70.9492 168.308 70.8929C168.255 70.8367 168.214 70.7693 168.189 70.6955C168.164 70.6217 168.156 70.5433 168.165 70.466V64.8905C168.165 64.5537 168.326 64.3018 168.7 64.3018C168.778 64.2953 168.856 64.3064 168.928 64.3342C169.001 64.362 169.066 64.4058 169.119 64.4624C169.173 64.519 169.213 64.5869 169.236 64.661C169.259 64.7352 169.266 64.8136 169.254 64.8905V65.5579C169.629 64.73 170.256 64.2986 170.923 64.2986C171.285 64.2986 171.512 64.4844 171.512 64.8055C171.512 65.2211 171.285 65.4068 170.857 65.4068C169.975 65.4068 169.308 66.1404 169.308 67.5445V70.4566C169.316 70.5345 169.307 70.6133 169.281 70.6873C169.255 70.7613 169.214 70.8288 169.159 70.8849C169.105 70.9411 169.038 70.9845 168.965 71.0122C168.892 71.0399 168.813 71.0512 168.735 71.0453" fill="#0061AF"/>
<path d="M173.243 67.047H176.329C176.329 66.005 175.85 65.2431 174.874 65.2431C173.964 65.2431 173.366 65.8728 173.243 67.047ZM175.06 71.0547C173.284 71.0547 172.123 69.8804 172.123 67.6609C172.123 65.602 173.256 64.3081 174.874 64.3081C176.344 64.3081 177.393 65.4163 177.393 67.1793C177.393 67.7019 177.141 67.9159 176.634 67.9159H173.231C173.284 69.3956 174.046 70.0662 175.088 70.0662C176.13 70.0662 176.464 69.5719 176.81 69.5719C176.867 69.5713 176.924 69.5826 176.976 69.6048C177.028 69.6271 177.075 69.66 177.114 69.7014C177.153 69.7428 177.184 69.7918 177.203 69.8454C177.222 69.8989 177.23 69.9559 177.226 70.0127C177.226 70.5321 176.225 71.0547 175.06 71.0547Z" fill="#0061AF"/>
<path d="M181.448 66.2317C181.448 62.8914 182.877 61.4369 184.989 61.4369C186.286 61.4369 187.247 61.9438 187.247 62.4381C187.249 62.5042 187.238 62.5703 187.214 62.6321C187.191 62.6939 187.155 62.7503 187.108 62.7977C187.062 62.8451 187.007 62.8826 186.945 62.9079C186.884 62.9332 186.818 62.9458 186.752 62.9449C186.406 62.9449 186.044 62.5168 185.043 62.5168C183.506 62.5168 182.638 63.6533 182.638 66.2317C182.638 68.8101 183.519 69.9843 185.084 69.9843C186.097 69.9843 186.459 69.5593 186.806 69.5593C186.87 69.558 186.935 69.5699 186.995 69.5944C187.055 69.6189 187.109 69.6555 187.154 69.7019C187.199 69.7482 187.234 69.8034 187.257 69.8639C187.28 69.9244 187.291 69.9889 187.287 70.0536C187.287 70.5856 186.271 71.0547 185.03 71.0547C182.893 71.0547 181.448 69.5971 181.448 66.2317Z" fill="#0061AF"/>
<path d="M189.132 67.047H192.217C192.217 66.005 191.736 65.2431 190.763 65.2431C189.853 65.2431 189.252 65.8728 189.132 67.047ZM190.949 71.0547C189.17 71.0547 188.011 69.8804 188.011 67.6609C188.011 65.602 189.145 64.3081 190.763 64.3081C192.23 64.3081 193.282 65.4163 193.282 67.1793C193.282 67.7019 193.027 67.9159 192.52 67.9159H189.12C189.17 69.3956 189.932 70.0662 190.974 70.0662C192.016 70.0662 192.35 69.5719 192.699 69.5719C192.756 69.5718 192.812 69.5833 192.864 69.6058C192.916 69.6283 192.963 69.6612 193.001 69.7025C193.04 69.7439 193.07 69.7928 193.089 69.8461C193.108 69.8995 193.115 69.9562 193.112 70.0127C193.112 70.5321 192.11 71.0547 190.949 71.0547Z" fill="#0061AF"/>
<path d="M198.791 70.466V66.7259C198.791 65.7374 198.379 65.3092 197.617 65.3092C196.672 65.3092 195.879 66.0711 195.879 67.5665V70.466C195.887 70.5439 195.878 70.6227 195.852 70.6967C195.826 70.7707 195.785 70.8382 195.73 70.8944C195.675 70.9505 195.609 70.994 195.536 71.0217C195.463 71.0494 195.384 71.0607 195.306 71.0547C195.228 71.0604 195.151 71.0489 195.078 71.0209C195.006 70.9929 194.94 70.9492 194.886 70.8929C194.833 70.8366 194.792 70.7691 194.768 70.6953C194.744 70.6215 194.736 70.5432 194.746 70.466V64.8905C194.736 64.8144 194.743 64.737 194.766 64.6639C194.79 64.5908 194.829 64.5238 194.881 64.4676C194.934 64.4114 194.998 64.3674 195.069 64.3387C195.14 64.3101 195.217 64.2975 195.293 64.3018C195.37 64.2963 195.447 64.3081 195.519 64.3364C195.591 64.3646 195.656 64.4086 195.708 64.4651C195.761 64.5216 195.8 64.5891 195.823 64.6627C195.846 64.7363 195.852 64.8142 195.841 64.8905V65.5202C196.032 65.1578 196.318 64.8544 196.669 64.6425C197.019 64.4307 197.421 64.3183 197.831 64.3175C199.14 64.3175 199.94 65.1455 199.94 66.6819V70.4597C199.946 70.5387 199.935 70.6181 199.909 70.6929C199.883 70.7677 199.842 70.8362 199.788 70.8943C199.734 70.9524 199.668 70.9987 199.596 71.0304C199.523 71.0621 199.445 71.0784 199.366 71.0784C199.286 71.0784 199.208 71.0621 199.135 71.0304C199.063 70.9987 198.997 70.9524 198.943 70.8943C198.889 70.8362 198.848 70.7677 198.822 70.6929C198.796 70.6181 198.785 70.5387 198.791 70.4597" fill="#0061AF"/>
<path d="M203.951 71.0547C202.814 71.0547 202.093 70.3842 202.093 68.8888V65.4037H201.344C201.224 65.3939 201.111 65.3391 201.029 65.2501C200.947 65.1612 200.901 65.0446 200.901 64.9236C200.901 64.8026 200.947 64.686 201.029 64.597C201.111 64.5081 201.224 64.4532 201.344 64.4435H202.119V63.4108C202.119 63.2639 202.177 63.123 202.281 63.019C202.385 62.9151 202.526 62.8568 202.673 62.8568C202.82 62.8568 202.961 62.9151 203.064 63.019C203.168 63.123 203.227 63.2639 203.227 63.4108V64.4435H204.845C204.966 64.4532 205.078 64.5081 205.16 64.597C205.242 64.686 205.288 64.8026 205.288 64.9236C205.288 65.0446 205.242 65.1612 205.16 65.2501C205.078 65.3391 204.966 65.3939 204.845 65.4037H203.227V68.851C203.227 69.7041 203.542 70.0253 204.096 70.0253C204.65 70.0253 204.898 69.7451 205.138 69.7451C205.193 69.744 205.248 69.7546 205.299 69.776C205.35 69.7975 205.396 69.8295 205.434 69.8698C205.472 69.9101 205.501 69.958 205.52 70.0102C205.538 70.0625 205.545 70.118 205.541 70.1732C205.541 70.573 204.858 71.0547 203.967 71.0547" fill="#0061AF"/>
<path d="M207.172 71.0547C207.094 71.0603 207.016 71.0488 206.943 71.0208C206.871 70.9928 206.805 70.9492 206.751 70.8929C206.697 70.8367 206.657 70.7693 206.632 70.6955C206.607 70.6217 206.599 70.5433 206.608 70.466V64.8905C206.608 64.5537 206.769 64.3018 207.143 64.3018C207.22 64.2963 207.297 64.3081 207.369 64.3364C207.441 64.3646 207.505 64.4086 207.558 64.4651C207.611 64.5215 207.65 64.5891 207.673 64.6627C207.696 64.7363 207.702 64.8142 207.691 64.8905V65.5579C208.066 64.73 208.692 64.2986 209.36 64.2986C209.722 64.2986 209.948 64.4844 209.948 64.8055C209.948 65.2211 209.722 65.4068 209.293 65.4068C208.412 65.4068 207.745 66.1404 207.745 67.5445V70.4566C207.753 70.5345 207.743 70.6133 207.718 70.6873C207.692 70.7613 207.65 70.8288 207.596 70.8849C207.541 70.9411 207.475 70.9845 207.401 71.0122C207.328 71.0399 207.25 71.0512 207.172 71.0453" fill="#0061AF"/>
<path d="M211.686 67.047H214.771C214.771 66.005 214.293 65.2431 213.317 65.2431C212.407 65.2431 211.809 65.8728 211.686 67.047ZM213.503 71.0547C211.727 71.0547 210.565 69.8804 210.565 67.6609C210.565 65.602 211.699 64.3081 213.317 64.3081C214.787 64.3081 215.836 65.4163 215.836 67.1793C215.836 67.7019 215.584 67.9159 215.074 67.9159H211.674C211.727 69.3956 212.489 70.0662 213.531 70.0662C214.573 70.0662 214.907 69.5719 215.253 69.5719C215.31 69.5718 215.366 69.5833 215.418 69.6058C215.47 69.6283 215.517 69.6612 215.555 69.7025C215.594 69.7439 215.624 69.7928 215.643 69.8461C215.662 69.8995 215.669 69.9562 215.666 70.0127C215.666 70.5321 214.664 71.0547 213.503 71.0547Z" fill="#0061AF"/>
</g>
</g>
<defs>
<clipPath id="clip0_42_2182">
<rect width="232.291" height="75" fill="white" transform="translate(0 0.5)"/>
</clipPath>
</defs>
</svg>
