<svg width="45" height="43" viewBox="0 0 45 43" fill="none" xmlns="http://www.w3.org/2000/svg">
<path fill-rule="evenodd" clip-rule="evenodd" d="M15.1351 5.02851C17.2929 7.79954 16.987 11.681 16.3858 13.9322C15.7174 16.4342 14.245 20.8225 16.4171 25.9492C18.4783 30.8151 18.0556 32.4908 18.7534 36.4611C19.575 41.137 21.4931 41.5275 22.1877 41.5275C22.8327 41.5275 25.1561 41.1227 25.9749 36.4611C26.6727 32.4908 26.25 30.8151 28.3117 25.9492C30.4838 20.8225 29.0113 16.4342 28.343 13.9322C27.7418 11.6828 27.4363 7.80598 29.5886 5.03495C29.6264 5.00781 29.8812 4.82474 30.0325 4.72584C30.2538 4.58094 30.4387 4.4388 30.5091 4.35922C30.7635 4.07126 30.7179 3.7879 30.6591 3.62598C30.597 3.45486 30.4498 3.16736 29.9842 3.15586C28.4603 3.11676 27.4308 2.53395 26.3981 1.97919C25.1842 1.32737 23.967 0.705917 22.1841 0.715577C20.4572 0.725237 19.2382 1.36831 18.0657 2.02795C17.0864 2.57903 16.1494 3.15218 14.8443 3.1554C14.4345 3.15632 14.2716 3.38678 14.193 3.53168C14.0987 3.70556 14.0219 3.9903 14.256 4.30862C14.3186 4.39372 14.4924 4.54966 14.71 4.70652C14.8545 4.81048 15.1056 5.00551 15.1351 5.02851ZM28.3936 4.3261C26.0609 7.46466 26.3365 11.7693 27.0094 14.2883C27.6281 16.6039 29.0514 20.6661 27.0407 25.411C24.9197 30.4172 25.3337 32.1371 24.6161 36.2223C24.0181 39.624 22.6583 40.1475 22.1877 40.1475C22.0019 40.1475 21.7043 40.0399 21.3781 39.6544C20.8997 39.0895 20.4347 38.0563 20.1127 36.2223C19.3946 32.1371 19.8086 30.4172 17.6876 25.411C15.6774 20.6661 17.1002 16.6039 17.7189 14.2883C18.3918 11.7702 18.6674 7.46834 16.338 4.3307C17.211 4.0892 17.9696 3.66554 18.7424 3.23084C19.7272 2.67655 20.741 2.10339 22.1914 2.09557C23.6988 2.08729 24.7186 2.64389 25.7449 3.19496C26.566 3.6361 27.3903 4.07586 28.3936 4.3261Z" fill="#C21975" stroke="#C21975"/>
<path fill-rule="evenodd" clip-rule="evenodd" d="M29.6917 4.9701C29.6917 4.9701 30.6489 4.17614 32.0809 3.39C33.6127 2.54959 35.6956 1.69859 37.7242 1.91157C39.7739 2.12731 41.2505 3.02477 42.0665 4.38728C42.8978 5.77463 43.0427 7.61324 42.4943 9.62849C41.8122 12.1355 40.101 14.4562 38.2936 15.7166C37.2242 16.4627 36.1353 16.8569 35.2397 16.5395C34.6491 16.3302 34.311 15.8582 34.201 15.2911C34.0055 14.2809 34.4669 13.0145 35.4734 12.0996C35.7554 11.8434 35.7761 11.4068 35.5199 11.1249C35.2636 10.8429 34.8271 10.8222 34.5451 11.0784C33.1426 12.3535 32.5736 14.1461 32.8464 15.5537C33.0488 16.5988 33.6895 17.454 34.7788 17.8404C36.0291 18.2833 37.5898 17.8901 39.0835 16.8486C41.1203 15.4277 43.0569 12.8167 43.826 9.99097C44.4871 7.56172 44.2525 5.35051 43.2501 3.67796C42.2331 1.98011 40.423 0.807578 37.8686 0.539399C35.5534 0.29606 33.1647 1.22112 31.4171 2.18021C29.8527 3.03903 28.809 3.90934 28.809 3.90934C28.5164 4.15268 28.4764 4.5883 28.7197 4.88086C28.9635 5.17388 29.3987 5.2139 29.6917 4.9701Z" fill="#C21975" stroke="#C21975"/>
<path fill-rule="evenodd" clip-rule="evenodd" d="M15.9189 3.90888C15.9189 3.90888 11.2504 0.0766413 6.84222 0.539399C4.28279 0.807578 2.46948 1.97965 1.45013 3.6775C0.445953 5.35005 0.210894 7.56172 0.873291 9.99097C1.64425 12.8172 3.58452 15.4281 5.62599 16.8486C7.1219 17.89 8.68451 18.2833 9.93709 17.8404C11.054 17.4452 11.7007 16.5588 11.8866 15.4806C12.1368 14.0288 11.5034 12.1888 9.99918 10.9284C9.70755 10.6842 9.27193 10.7224 9.02721 11.0145C8.78295 11.3061 8.82113 11.7417 9.11323 11.9864C10.1974 12.8949 10.7071 14.199 10.5268 15.246C10.4256 15.8329 10.0847 16.3242 9.47709 16.5395C8.57917 16.8569 7.48668 16.4627 6.41396 15.7161C4.60341 14.4557 2.88854 12.135 2.20452 9.62803C1.65529 7.61324 1.80065 5.77509 2.63324 4.38774C3.45158 3.02523 4.93185 2.12731 6.9862 1.91157C10.9077 1.50033 15.0375 4.97056 15.0375 4.97056C15.3306 5.21389 15.7662 5.17342 16.0091 4.8804C16.2524 4.58738 16.2119 4.15222 15.9189 3.90888Z" fill="#C21975" stroke="#C21975"/>
<path fill-rule="evenodd" clip-rule="evenodd" d="M7.72313 9.26004C8.34136 9.26004 8.84322 9.76235 8.84322 10.3806C8.84322 10.9988 8.34136 11.5007 7.72313 11.5007C7.10489 11.5007 6.60303 10.9988 6.60303 10.3806C6.60303 10.3107 6.60901 10.2426 6.62143 10.1764C6.68997 9.80191 6.44203 9.44174 6.06759 9.3732C5.6927 9.3042 5.33298 9.55213 5.26398 9.92703C5.23684 10.0738 5.22304 10.2256 5.22304 10.3806C5.22304 11.7601 6.34313 12.8807 7.72313 12.8807C9.10312 12.8807 10.2232 11.7601 10.2232 10.3806C10.2232 9.0006 9.10312 7.88004 7.72313 7.88004C7.34225 7.88004 7.03313 8.18962 7.03313 8.57004C7.03313 8.95092 7.34225 9.26004 7.72313 9.26004Z" fill="#C21975" stroke="#C21975"/>
<path fill-rule="evenodd" clip-rule="evenodd" d="M36.8276 7.88004C35.4476 7.88004 34.3275 9.0006 34.3275 10.3806C34.3275 11.7601 35.4476 12.8807 36.8276 12.8807C38.2076 12.8807 39.3277 11.7601 39.3277 10.3806C39.3277 9.0006 38.2076 7.88004 36.8276 7.88004ZM36.8276 9.26004C37.4459 9.26004 37.9477 9.76235 37.9477 10.3806C37.9477 10.9988 37.4459 11.5007 36.8276 11.5007C36.2094 11.5007 35.7075 10.9988 35.7075 10.3806C35.7075 9.76235 36.2094 9.26004 36.8276 9.26004Z" fill="#C21975" stroke="#C21975"/>
<path fill-rule="evenodd" clip-rule="evenodd" d="M22.1666 18.9614C21.6992 16.8771 21.0138 14.7929 20.0796 12.7086C19.4977 11.4101 18.8192 10.112 18.0363 8.81338C17.8394 8.48724 17.4153 8.38236 17.0891 8.57878C16.763 8.77566 16.6577 9.19978 16.8545 9.52591C17.6076 10.7748 18.2603 12.0242 18.8201 13.2731C19.9839 15.8693 20.7452 18.4655 21.1679 21.0622C21.2549 21.6252 21.7107 21.9767 22.1776 21.9735C22.6422 21.9702 23.093 21.6137 23.1749 21.0516C23.772 17.2157 25.1828 13.3807 27.6705 9.54523C27.8775 9.22554 27.7864 8.7982 27.4667 8.59074C27.147 8.38374 26.7196 8.47482 26.5122 8.79452C24.3148 12.1833 22.9228 15.5726 22.1666 18.9614Z" fill="#C21975" stroke="#C21975"/>
<path fill-rule="evenodd" clip-rule="evenodd" d="M18.2709 24.2744C20.2857 26.2243 21.2871 28.1641 21.5244 30.114C21.5672 30.4636 21.8667 30.7254 22.2186 30.7203C22.5709 30.7157 22.863 30.4466 22.8966 30.0956C23.0801 28.1563 24.0926 26.2307 26.2472 24.2914C26.5306 24.037 26.5536 23.6 26.2987 23.3171C26.0439 23.0342 25.6074 23.0112 25.3245 23.2656C23.8014 24.6364 22.7936 26.0118 22.1942 27.3862C21.6017 26.0177 20.6417 24.6488 19.2304 23.2831C18.9572 23.0181 18.5197 23.025 18.2548 23.2987C17.9903 23.5724 17.9972 24.0099 18.2709 24.2744Z" fill="#C21975" stroke="#C21975"/>
<path fill-rule="evenodd" clip-rule="evenodd" d="M21.4978 30.0308V37.8811C21.4978 38.2615 21.8069 38.5711 22.1878 38.5711C22.5686 38.5711 22.8777 38.2615 22.8777 37.8811V30.0308C22.8777 29.6499 22.5686 29.3408 22.1878 29.3408C21.8069 29.3408 21.4978 29.6499 21.4978 30.0308Z" fill="#C21975" stroke="#C21975"/>
</svg>
